<mxfile host="app.diagrams.net" modified="2023-07-01T09:32:07.412Z" agent="Mozilla/5.0 (Windows NT 10.0; Win64; x64) AppleWebKit/537.36 (KHTML, like Gecko) Chrome/114.0.0.0 Safari/537.36 Edg/114.0.1823.58" etag="kRj_JpUF4lq2XoJ9gGIW" version="21.5.2" type="github">
  <diagram id="C5RBs43oDa-KdzZeNtuy" name="Page-1">
    <mxGraphModel dx="3499" dy="1815" grid="1" gridSize="10" guides="1" tooltips="1" connect="1" arrows="1" fold="1" page="1" pageScale="1" pageWidth="827" pageHeight="1169" math="0" shadow="0">
      <root>
        <mxCell id="WIyWlLk6GJQsqaUBKTNV-0" />
        <mxCell id="WIyWlLk6GJQsqaUBKTNV-1" parent="WIyWlLk6GJQsqaUBKTNV-0" />
        <mxCell id="WIyWlLk6GJQsqaUBKTNV-2" value="" style="rounded=0;html=1;jettySize=auto;orthogonalLoop=1;fontSize=11;endArrow=block;endFill=0;endSize=8;strokeWidth=1;shadow=0;labelBackgroundColor=none;edgeStyle=orthogonalEdgeStyle;" parent="WIyWlLk6GJQsqaUBKTNV-1" source="WIyWlLk6GJQsqaUBKTNV-3" target="WIyWlLk6GJQsqaUBKTNV-6" edge="1">
          <mxGeometry relative="1" as="geometry" />
        </mxCell>
        <mxCell id="WIyWlLk6GJQsqaUBKTNV-3" value="Widget界面" style="rounded=1;whiteSpace=wrap;html=1;fontSize=12;glass=0;strokeWidth=1;shadow=0;" parent="WIyWlLk6GJQsqaUBKTNV-1" vertex="1">
          <mxGeometry x="160" y="60" width="120" height="40" as="geometry" />
        </mxCell>
        <mxCell id="WIyWlLk6GJQsqaUBKTNV-4" value="No" style="rounded=0;html=1;jettySize=auto;orthogonalLoop=1;fontSize=11;endArrow=block;endFill=0;endSize=8;strokeWidth=1;shadow=0;labelBackgroundColor=none;edgeStyle=orthogonalEdgeStyle;" parent="WIyWlLk6GJQsqaUBKTNV-1" source="WIyWlLk6GJQsqaUBKTNV-6" target="WIyWlLk6GJQsqaUBKTNV-10" edge="1">
          <mxGeometry x="0.1998" y="-20" relative="1" as="geometry">
            <mxPoint as="offset" />
          </mxGeometry>
        </mxCell>
        <mxCell id="WIyWlLk6GJQsqaUBKTNV-5" value="Yes" style="edgeStyle=orthogonalEdgeStyle;rounded=0;html=1;jettySize=auto;orthogonalLoop=1;fontSize=11;endArrow=block;endFill=0;endSize=8;strokeWidth=1;shadow=0;labelBackgroundColor=none;" parent="WIyWlLk6GJQsqaUBKTNV-1" source="WIyWlLk6GJQsqaUBKTNV-6" target="WIyWlLk6GJQsqaUBKTNV-7" edge="1">
          <mxGeometry x="-0.3333" y="10" relative="1" as="geometry">
            <mxPoint as="offset" />
          </mxGeometry>
        </mxCell>
        <mxCell id="WIyWlLk6GJQsqaUBKTNV-6" value="单人模式" style="rhombus;whiteSpace=wrap;html=1;shadow=0;fontFamily=Helvetica;fontSize=12;align=center;strokeWidth=1;spacing=6;spacingTop=-4;" parent="WIyWlLk6GJQsqaUBKTNV-1" vertex="1">
          <mxGeometry x="170" y="130" width="100" height="40" as="geometry" />
        </mxCell>
        <mxCell id="yZs2qZ3oQDK3VLmGHFkM-14" value="" style="edgeStyle=orthogonalEdgeStyle;rounded=0;orthogonalLoop=1;jettySize=auto;html=1;labelBackgroundColor=none;endArrow=block;endFill=0;endSize=8;strokeWidth=1;shadow=0;" edge="1" parent="WIyWlLk6GJQsqaUBKTNV-1" source="WIyWlLk6GJQsqaUBKTNV-7" target="yZs2qZ3oQDK3VLmGHFkM-12">
          <mxGeometry relative="1" as="geometry" />
        </mxCell>
        <mxCell id="WIyWlLk6GJQsqaUBKTNV-7" value="Snake界面" style="rounded=1;whiteSpace=wrap;html=1;fontSize=12;glass=0;strokeWidth=1;shadow=0;" parent="WIyWlLk6GJQsqaUBKTNV-1" vertex="1">
          <mxGeometry x="10" y="130" width="120" height="40" as="geometry" />
        </mxCell>
        <mxCell id="WIyWlLk6GJQsqaUBKTNV-8" value="Yes" style="rounded=0;html=1;jettySize=auto;orthogonalLoop=1;fontSize=11;endArrow=block;endFill=0;endSize=8;strokeWidth=1;shadow=0;labelBackgroundColor=none;edgeStyle=orthogonalEdgeStyle;exitX=0;exitY=0.5;exitDx=0;exitDy=0;entryX=1;entryY=0.5;entryDx=0;entryDy=0;" parent="WIyWlLk6GJQsqaUBKTNV-1" source="WIyWlLk6GJQsqaUBKTNV-10" target="WIyWlLk6GJQsqaUBKTNV-11" edge="1">
          <mxGeometry x="-0.25" y="20" relative="1" as="geometry">
            <mxPoint as="offset" />
            <Array as="points">
              <mxPoint x="170" y="230" />
              <mxPoint x="170" y="230" />
            </Array>
          </mxGeometry>
        </mxCell>
        <mxCell id="WIyWlLk6GJQsqaUBKTNV-10" value="双人模式" style="rhombus;whiteSpace=wrap;html=1;shadow=0;fontFamily=Helvetica;fontSize=12;align=center;strokeWidth=1;spacing=6;spacingTop=-4;" parent="WIyWlLk6GJQsqaUBKTNV-1" vertex="1">
          <mxGeometry x="170" y="200" width="100" height="40" as="geometry" />
        </mxCell>
        <mxCell id="yZs2qZ3oQDK3VLmGHFkM-15" value="" style="edgeStyle=orthogonalEdgeStyle;rounded=0;orthogonalLoop=1;jettySize=auto;html=1;labelBackgroundColor=none;endArrow=block;endFill=0;endSize=8;strokeWidth=1;shadow=0;entryX=1;entryY=0.5;entryDx=0;entryDy=0;" edge="1" parent="WIyWlLk6GJQsqaUBKTNV-1" source="WIyWlLk6GJQsqaUBKTNV-11" target="yZs2qZ3oQDK3VLmGHFkM-12">
          <mxGeometry relative="1" as="geometry" />
        </mxCell>
        <mxCell id="WIyWlLk6GJQsqaUBKTNV-11" value="TwoPlayers界面" style="rounded=1;whiteSpace=wrap;html=1;fontSize=12;glass=0;strokeWidth=1;shadow=0;" parent="WIyWlLk6GJQsqaUBKTNV-1" vertex="1">
          <mxGeometry x="10" y="200" width="120" height="40" as="geometry" />
        </mxCell>
        <mxCell id="yZs2qZ3oQDK3VLmGHFkM-8" value="" style="edgeStyle=orthogonalEdgeStyle;rounded=0;orthogonalLoop=1;jettySize=auto;html=1;labelBackgroundColor=none;endArrow=block;endFill=0;endSize=8;strokeWidth=1;shadow=0;exitX=0.5;exitY=1;exitDx=0;exitDy=0;" edge="1" parent="WIyWlLk6GJQsqaUBKTNV-1" source="yZs2qZ3oQDK3VLmGHFkM-0" target="WIyWlLk6GJQsqaUBKTNV-3">
          <mxGeometry relative="1" as="geometry">
            <Array as="points">
              <mxPoint x="-130" y="30" />
              <mxPoint x="-130" y="40" />
              <mxPoint x="220" y="40" />
            </Array>
          </mxGeometry>
        </mxCell>
        <mxCell id="yZs2qZ3oQDK3VLmGHFkM-0" value="&amp;nbsp;开始" style="ellipse;whiteSpace=wrap;html=1;" vertex="1" parent="WIyWlLk6GJQsqaUBKTNV-1">
          <mxGeometry x="-170" y="-10" width="85" height="40" as="geometry" />
        </mxCell>
        <mxCell id="yZs2qZ3oQDK3VLmGHFkM-9" value="" style="edgeStyle=orthogonalEdgeStyle;rounded=0;orthogonalLoop=1;jettySize=auto;html=1;labelBackgroundColor=none;endArrow=block;endFill=0;endSize=8;strokeWidth=1;shadow=0;entryX=0.5;entryY=0;entryDx=0;entryDy=0;" edge="1" parent="WIyWlLk6GJQsqaUBKTNV-1" source="yZs2qZ3oQDK3VLmGHFkM-1" target="yZs2qZ3oQDK3VLmGHFkM-7">
          <mxGeometry relative="1" as="geometry">
            <Array as="points">
              <mxPoint x="220" y="350" />
              <mxPoint x="-129" y="350" />
            </Array>
          </mxGeometry>
        </mxCell>
        <mxCell id="yZs2qZ3oQDK3VLmGHFkM-1" value="帮助" style="rhombus;whiteSpace=wrap;html=1;shadow=0;fontFamily=Helvetica;fontSize=12;align=center;strokeWidth=1;spacing=6;spacingTop=-4;" vertex="1" parent="WIyWlLk6GJQsqaUBKTNV-1">
          <mxGeometry x="170" y="270" width="100" height="40" as="geometry" />
        </mxCell>
        <mxCell id="yZs2qZ3oQDK3VLmGHFkM-2" value="No" style="rounded=0;html=1;jettySize=auto;orthogonalLoop=1;fontSize=11;endArrow=block;endFill=0;endSize=8;strokeWidth=1;shadow=0;labelBackgroundColor=none;edgeStyle=orthogonalEdgeStyle;exitX=0.5;exitY=1;exitDx=0;exitDy=0;entryX=0.5;entryY=0;entryDx=0;entryDy=0;" edge="1" parent="WIyWlLk6GJQsqaUBKTNV-1" source="WIyWlLk6GJQsqaUBKTNV-10" target="yZs2qZ3oQDK3VLmGHFkM-1">
          <mxGeometry x="-0.3333" y="-20" relative="1" as="geometry">
            <mxPoint as="offset" />
            <mxPoint x="230" y="260" as="sourcePoint" />
            <mxPoint x="230" y="290" as="targetPoint" />
          </mxGeometry>
        </mxCell>
        <mxCell id="yZs2qZ3oQDK3VLmGHFkM-7" value="结束" style="ellipse;whiteSpace=wrap;html=1;" vertex="1" parent="WIyWlLk6GJQsqaUBKTNV-1">
          <mxGeometry x="-167.5" y="400" width="77.5" height="40" as="geometry" />
        </mxCell>
        <mxCell id="yZs2qZ3oQDK3VLmGHFkM-12" value="游戏界面" style="rounded=1;whiteSpace=wrap;html=1;fontSize=12;glass=0;strokeWidth=1;shadow=0;" vertex="1" parent="WIyWlLk6GJQsqaUBKTNV-1">
          <mxGeometry x="-160" y="160" width="120" height="40" as="geometry" />
        </mxCell>
        <mxCell id="yZs2qZ3oQDK3VLmGHFkM-19" value="" style="rounded=0;html=1;jettySize=auto;orthogonalLoop=1;fontSize=11;endArrow=block;endFill=0;endSize=8;strokeWidth=1;shadow=0;labelBackgroundColor=none;edgeStyle=orthogonalEdgeStyle;entryX=0.5;entryY=0;entryDx=0;entryDy=0;exitX=0.5;exitY=1;exitDx=0;exitDy=0;" edge="1" parent="WIyWlLk6GJQsqaUBKTNV-1" source="yZs2qZ3oQDK3VLmGHFkM-12" target="yZs2qZ3oQDK3VLmGHFkM-30">
          <mxGeometry x="0.1998" y="-20" relative="1" as="geometry">
            <mxPoint as="offset" />
            <mxPoint x="230" y="190" as="sourcePoint" />
            <mxPoint x="-110" y="240" as="targetPoint" />
          </mxGeometry>
        </mxCell>
        <mxCell id="yZs2qZ3oQDK3VLmGHFkM-22" value="No" style="rounded=0;html=1;jettySize=auto;orthogonalLoop=1;fontSize=11;endArrow=block;endFill=0;endSize=8;strokeWidth=1;shadow=0;labelBackgroundColor=none;edgeStyle=orthogonalEdgeStyle;entryX=0.5;entryY=0;entryDx=0;entryDy=0;exitX=0.5;exitY=1;exitDx=0;exitDy=0;" edge="1" parent="WIyWlLk6GJQsqaUBKTNV-1" source="yZs2qZ3oQDK3VLmGHFkM-30" target="yZs2qZ3oQDK3VLmGHFkM-31">
          <mxGeometry x="-0.3333" y="-10" relative="1" as="geometry">
            <mxPoint as="offset" />
            <mxPoint x="-110" y="280" as="sourcePoint" />
            <mxPoint x="-110" y="310" as="targetPoint" />
          </mxGeometry>
        </mxCell>
        <mxCell id="yZs2qZ3oQDK3VLmGHFkM-23" value="Yes" style="rounded=0;html=1;jettySize=auto;orthogonalLoop=1;fontSize=11;endArrow=block;endFill=0;endSize=8;strokeWidth=1;shadow=0;labelBackgroundColor=none;edgeStyle=orthogonalEdgeStyle;entryX=1;entryY=0.5;entryDx=0;entryDy=0;exitX=0;exitY=0.5;exitDx=0;exitDy=0;" edge="1" parent="WIyWlLk6GJQsqaUBKTNV-1" source="yZs2qZ3oQDK3VLmGHFkM-30" target="yZs2qZ3oQDK3VLmGHFkM-29">
          <mxGeometry y="-10" relative="1" as="geometry">
            <mxPoint as="offset" />
            <mxPoint x="-160" y="260" as="sourcePoint" />
            <mxPoint x="-100" y="320" as="targetPoint" />
          </mxGeometry>
        </mxCell>
        <mxCell id="yZs2qZ3oQDK3VLmGHFkM-26" value="退出游戏" style="rhombus;whiteSpace=wrap;html=1;shadow=0;fontFamily=Helvetica;fontSize=12;align=center;strokeWidth=1;spacing=6;spacingTop=-4;" vertex="1" parent="WIyWlLk6GJQsqaUBKTNV-1">
          <mxGeometry x="-300" y="360" width="100" height="40" as="geometry" />
        </mxCell>
        <mxCell id="yZs2qZ3oQDK3VLmGHFkM-27" value="继续游戏" style="rhombus;whiteSpace=wrap;html=1;shadow=0;fontFamily=Helvetica;fontSize=12;align=center;strokeWidth=1;spacing=6;spacingTop=-4;" vertex="1" parent="WIyWlLk6GJQsqaUBKTNV-1">
          <mxGeometry x="-310" y="160" width="100" height="40" as="geometry" />
        </mxCell>
        <mxCell id="yZs2qZ3oQDK3VLmGHFkM-41" value="" style="edgeStyle=orthogonalEdgeStyle;rounded=0;orthogonalLoop=1;jettySize=auto;html=1;labelBackgroundColor=none;endArrow=block;endFill=0;endSize=8;strokeWidth=1;shadow=0;" edge="1" parent="WIyWlLk6GJQsqaUBKTNV-1" source="yZs2qZ3oQDK3VLmGHFkM-28" target="yZs2qZ3oQDK3VLmGHFkM-39">
          <mxGeometry relative="1" as="geometry" />
        </mxCell>
        <mxCell id="yZs2qZ3oQDK3VLmGHFkM-28" value="Over界面" style="rounded=1;whiteSpace=wrap;html=1;fontSize=12;glass=0;strokeWidth=1;shadow=0;" vertex="1" parent="WIyWlLk6GJQsqaUBKTNV-1">
          <mxGeometry x="-320" y="290" width="120" height="40" as="geometry" />
        </mxCell>
        <mxCell id="yZs2qZ3oQDK3VLmGHFkM-40" value="" style="edgeStyle=orthogonalEdgeStyle;rounded=0;orthogonalLoop=1;jettySize=auto;html=1;labelBackgroundColor=none;endArrow=block;endFill=0;endSize=8;strokeWidth=1;shadow=0;" edge="1" parent="WIyWlLk6GJQsqaUBKTNV-1" source="yZs2qZ3oQDK3VLmGHFkM-29" target="yZs2qZ3oQDK3VLmGHFkM-35">
          <mxGeometry relative="1" as="geometry" />
        </mxCell>
        <mxCell id="yZs2qZ3oQDK3VLmGHFkM-29" value="Pause界面" style="rounded=1;whiteSpace=wrap;html=1;fontSize=12;glass=0;strokeWidth=1;shadow=0;" vertex="1" parent="WIyWlLk6GJQsqaUBKTNV-1">
          <mxGeometry x="-320" y="230" width="120" height="40" as="geometry" />
        </mxCell>
        <mxCell id="yZs2qZ3oQDK3VLmGHFkM-30" value="暂停" style="rhombus;whiteSpace=wrap;html=1;shadow=0;fontFamily=Helvetica;fontSize=12;align=center;strokeWidth=1;spacing=6;spacingTop=-4;" vertex="1" parent="WIyWlLk6GJQsqaUBKTNV-1">
          <mxGeometry x="-160" y="230" width="100" height="40" as="geometry" />
        </mxCell>
        <mxCell id="yZs2qZ3oQDK3VLmGHFkM-31" value="结束" style="rhombus;whiteSpace=wrap;html=1;shadow=0;fontFamily=Helvetica;fontSize=12;align=center;strokeWidth=1;spacing=6;spacingTop=-4;" vertex="1" parent="WIyWlLk6GJQsqaUBKTNV-1">
          <mxGeometry x="-160" y="290" width="100" height="40" as="geometry" />
        </mxCell>
        <mxCell id="yZs2qZ3oQDK3VLmGHFkM-32" value="Yes" style="rounded=0;html=1;jettySize=auto;orthogonalLoop=1;fontSize=11;endArrow=block;endFill=0;endSize=8;strokeWidth=1;shadow=0;labelBackgroundColor=none;edgeStyle=orthogonalEdgeStyle;entryX=1;entryY=0.5;entryDx=0;entryDy=0;exitX=0;exitY=0.5;exitDx=0;exitDy=0;exitPerimeter=0;" edge="1" parent="WIyWlLk6GJQsqaUBKTNV-1" source="yZs2qZ3oQDK3VLmGHFkM-31" target="yZs2qZ3oQDK3VLmGHFkM-28">
          <mxGeometry x="-0.1536" y="-10" relative="1" as="geometry">
            <mxPoint as="offset" />
            <mxPoint x="-150" y="270" as="sourcePoint" />
            <mxPoint x="-190" y="270" as="targetPoint" />
          </mxGeometry>
        </mxCell>
        <mxCell id="yZs2qZ3oQDK3VLmGHFkM-35" value="主菜单" style="rhombus;whiteSpace=wrap;html=1;shadow=0;fontFamily=Helvetica;fontSize=12;align=center;strokeWidth=1;spacing=6;spacingTop=-4;" vertex="1" parent="WIyWlLk6GJQsqaUBKTNV-1">
          <mxGeometry x="-450" y="230" width="100" height="40" as="geometry" />
        </mxCell>
        <mxCell id="yZs2qZ3oQDK3VLmGHFkM-60" style="edgeStyle=orthogonalEdgeStyle;rounded=0;orthogonalLoop=1;jettySize=auto;html=1;exitX=0;exitY=0.5;exitDx=0;exitDy=0;entryX=0;entryY=0.5;entryDx=0;entryDy=0;labelBackgroundColor=none;endArrow=block;endFill=0;endSize=8;strokeWidth=1;shadow=0;" edge="1" parent="WIyWlLk6GJQsqaUBKTNV-1" source="yZs2qZ3oQDK3VLmGHFkM-39" target="WIyWlLk6GJQsqaUBKTNV-3">
          <mxGeometry relative="1" as="geometry" />
        </mxCell>
        <mxCell id="yZs2qZ3oQDK3VLmGHFkM-39" value="主菜单" style="rhombus;whiteSpace=wrap;html=1;shadow=0;fontFamily=Helvetica;fontSize=12;align=center;strokeWidth=1;spacing=6;spacingTop=-4;" vertex="1" parent="WIyWlLk6GJQsqaUBKTNV-1">
          <mxGeometry x="-450" y="290" width="100" height="40" as="geometry" />
        </mxCell>
        <mxCell id="yZs2qZ3oQDK3VLmGHFkM-51" value="Yes" style="text;html=1;strokeColor=none;fillColor=none;align=center;verticalAlign=middle;whiteSpace=wrap;rounded=0;" vertex="1" parent="WIyWlLk6GJQsqaUBKTNV-1">
          <mxGeometry x="-2160" y="360" width="1350" height="290" as="geometry" />
        </mxCell>
        <mxCell id="yZs2qZ3oQDK3VLmGHFkM-59" value="Yes" style="rounded=0;html=1;jettySize=auto;orthogonalLoop=1;fontSize=11;endArrow=block;endFill=0;endSize=8;strokeWidth=1;shadow=0;labelBackgroundColor=none;edgeStyle=orthogonalEdgeStyle;entryX=0;entryY=0.5;entryDx=0;entryDy=0;exitX=0;exitY=0.5;exitDx=0;exitDy=0;" edge="1" parent="WIyWlLk6GJQsqaUBKTNV-1" source="yZs2qZ3oQDK3VLmGHFkM-35" target="WIyWlLk6GJQsqaUBKTNV-3">
          <mxGeometry x="0.2099" y="-10" relative="1" as="geometry">
            <mxPoint as="offset" />
            <mxPoint x="-150" y="260" as="sourcePoint" />
            <mxPoint x="-190" y="260" as="targetPoint" />
          </mxGeometry>
        </mxCell>
        <mxCell id="yZs2qZ3oQDK3VLmGHFkM-61" value="No" style="rounded=0;html=1;jettySize=auto;orthogonalLoop=1;fontSize=11;endArrow=block;endFill=0;endSize=8;strokeWidth=1;shadow=0;labelBackgroundColor=none;edgeStyle=orthogonalEdgeStyle;entryX=0;entryY=0.5;entryDx=0;entryDy=0;exitX=0.5;exitY=1;exitDx=0;exitDy=0;" edge="1" parent="WIyWlLk6GJQsqaUBKTNV-1" source="yZs2qZ3oQDK3VLmGHFkM-39" target="yZs2qZ3oQDK3VLmGHFkM-26">
          <mxGeometry x="0.0667" y="10" relative="1" as="geometry">
            <mxPoint as="offset" />
            <mxPoint x="-150" y="320" as="sourcePoint" />
            <mxPoint x="-190" y="320" as="targetPoint" />
            <Array as="points">
              <mxPoint x="-400" y="380" />
            </Array>
          </mxGeometry>
        </mxCell>
        <mxCell id="yZs2qZ3oQDK3VLmGHFkM-62" value="Yes" style="rounded=0;html=1;jettySize=auto;orthogonalLoop=1;fontSize=11;endArrow=block;endFill=0;endSize=8;strokeWidth=1;shadow=0;labelBackgroundColor=none;edgeStyle=orthogonalEdgeStyle;entryX=0;entryY=0.5;entryDx=0;entryDy=0;exitX=0.5;exitY=1;exitDx=0;exitDy=0;" edge="1" parent="WIyWlLk6GJQsqaUBKTNV-1" source="yZs2qZ3oQDK3VLmGHFkM-26" target="yZs2qZ3oQDK3VLmGHFkM-7">
          <mxGeometry x="-0.0175" y="10" relative="1" as="geometry">
            <mxPoint as="offset" />
            <mxPoint x="-150" y="320" as="sourcePoint" />
            <mxPoint x="-190" y="320" as="targetPoint" />
            <Array as="points">
              <mxPoint x="-250" y="420" />
            </Array>
          </mxGeometry>
        </mxCell>
        <mxCell id="yZs2qZ3oQDK3VLmGHFkM-63" value="No" style="rounded=0;html=1;jettySize=auto;orthogonalLoop=1;fontSize=11;endArrow=block;endFill=0;endSize=8;strokeWidth=1;shadow=0;labelBackgroundColor=none;edgeStyle=orthogonalEdgeStyle;entryX=0.587;entryY=1.031;entryDx=0;entryDy=0;exitX=0.5;exitY=0;exitDx=0;exitDy=0;entryPerimeter=0;" edge="1" parent="WIyWlLk6GJQsqaUBKTNV-1" source="yZs2qZ3oQDK3VLmGHFkM-26" target="yZs2qZ3oQDK3VLmGHFkM-28">
          <mxGeometry x="-0.2941" y="-10" relative="1" as="geometry">
            <mxPoint as="offset" />
            <mxPoint x="-150" y="320" as="sourcePoint" />
            <mxPoint x="-190" y="320" as="targetPoint" />
          </mxGeometry>
        </mxCell>
        <mxCell id="yZs2qZ3oQDK3VLmGHFkM-64" value="No" style="rounded=0;html=1;jettySize=auto;orthogonalLoop=1;fontSize=11;endArrow=block;endFill=0;endSize=8;strokeWidth=1;shadow=0;labelBackgroundColor=none;edgeStyle=orthogonalEdgeStyle;entryX=0;entryY=0.5;entryDx=0;entryDy=0;exitX=0.5;exitY=0;exitDx=0;exitDy=0;" edge="1" parent="WIyWlLk6GJQsqaUBKTNV-1" source="yZs2qZ3oQDK3VLmGHFkM-35" target="yZs2qZ3oQDK3VLmGHFkM-27">
          <mxGeometry y="-10" relative="1" as="geometry">
            <mxPoint as="offset" />
            <mxPoint x="-150" y="320" as="sourcePoint" />
            <mxPoint x="-190" y="320" as="targetPoint" />
          </mxGeometry>
        </mxCell>
        <mxCell id="yZs2qZ3oQDK3VLmGHFkM-65" value="Yes" style="rounded=0;html=1;jettySize=auto;orthogonalLoop=1;fontSize=11;endArrow=block;endFill=0;endSize=8;strokeWidth=1;shadow=0;labelBackgroundColor=none;edgeStyle=orthogonalEdgeStyle;entryX=0;entryY=0.5;entryDx=0;entryDy=0;exitX=1;exitY=0.5;exitDx=0;exitDy=0;" edge="1" parent="WIyWlLk6GJQsqaUBKTNV-1" source="yZs2qZ3oQDK3VLmGHFkM-27" target="yZs2qZ3oQDK3VLmGHFkM-12">
          <mxGeometry x="-0.2" y="-10" relative="1" as="geometry">
            <mxPoint as="offset" />
            <mxPoint x="-150" y="260" as="sourcePoint" />
            <mxPoint x="-190" y="260" as="targetPoint" />
          </mxGeometry>
        </mxCell>
        <mxCell id="yZs2qZ3oQDK3VLmGHFkM-66" value="No" style="rounded=0;html=1;jettySize=auto;orthogonalLoop=1;fontSize=11;endArrow=block;endFill=0;endSize=8;strokeWidth=1;shadow=0;labelBackgroundColor=none;edgeStyle=orthogonalEdgeStyle;entryX=0.5;entryY=0;entryDx=0;entryDy=0;exitX=0.5;exitY=1;exitDx=0;exitDy=0;" edge="1" parent="WIyWlLk6GJQsqaUBKTNV-1" source="yZs2qZ3oQDK3VLmGHFkM-27" target="yZs2qZ3oQDK3VLmGHFkM-29">
          <mxGeometry x="-0.3333" y="-10" relative="1" as="geometry">
            <mxPoint as="offset" />
            <mxPoint x="-260" y="210" as="sourcePoint" />
            <mxPoint x="-190" y="260" as="targetPoint" />
          </mxGeometry>
        </mxCell>
      </root>
    </mxGraphModel>
  </diagram>
</mxfile>
